<svg width="158" height="54" viewBox="0 0 158 54" fill="none" xmlns="http://www.w3.org/2000/svg">
<g clip-path="url(#clip0_1_1509)">
<path d="M158 48.587C158 51.5776 155.966 54 153.45 54H4.55575C2.04113 54 0 51.5776 0 48.587V5.42007C0 2.4309 2.04113 0 4.55575 0H153.449C155.966 0 157.999 2.4309 157.999 5.42007L158 48.587Z" fill="#24095F"/>
<path d="M35.9516 26.2543C35.9188 22.6768 38.94 20.9364 39.0782 20.8554C37.3671 18.4101 34.7151 18.076 33.7831 18.0494C31.5557 17.8196 29.3951 19.3558 28.2604 19.3558C27.1031 19.3558 25.3558 18.0716 23.4726 18.1093C21.0493 18.1459 18.7823 19.5212 17.5389 21.6568C14.9729 26.0112 16.8866 32.4102 19.3451 35.9299C20.5748 37.6537 22.0118 39.5784 23.8928 39.5107C25.7329 39.4363 26.4203 38.3607 28.6409 38.3607C30.8411 38.3607 31.4866 39.5107 33.4049 39.4674C35.3798 39.4363 36.6232 37.7358 37.8099 35.9965C39.2311 34.0207 39.8018 32.075 39.8244 31.9751C39.778 31.9595 35.989 30.5421 35.9516 26.2543Z" fill="white"/>
<path d="M32.328 15.734C33.3177 14.5208 33.9949 12.8703 33.8069 11.1953C32.3744 11.2575 30.583 12.1665 29.5513 13.3531C28.6386 14.3987 27.8233 16.1125 28.0339 17.7242C29.6431 17.8418 31.2952 16.9283 32.328 15.734Z" fill="white"/>
<path d="M57.4542 15.3016C57.4542 16.5847 57.0682 17.5505 56.2973 18.1992C55.5833 18.7976 54.5686 19.0974 53.2543 19.0974C52.6027 19.0974 52.045 19.0691 51.5781 19.0124V12.0018C52.1872 11.9037 52.8432 11.8535 53.5517 11.8535C54.8037 11.8535 55.7473 12.125 56.3837 12.6678C57.0966 13.2816 57.4542 14.1591 57.4542 15.3016ZM56.2459 15.3332C56.2459 14.5014 56.0251 13.8637 55.5833 13.4189C55.1416 12.9753 54.4965 12.7529 53.6469 12.7529C53.286 12.7529 52.9788 12.7769 52.724 12.827V18.1566C52.8651 18.1784 53.1231 18.1883 53.4982 18.1883C54.3751 18.1883 55.0519 17.9452 55.5286 17.459C56.0054 16.9728 56.2459 16.2642 56.2459 15.3332Z" fill="white"/>
<path d="M64.6372 17.0738C64.6372 17.8506 64.403 18.487 63.9347 18.9863C63.4437 19.4995 62.7932 19.7556 61.9809 19.7556C61.1981 19.7556 60.5748 19.5102 60.1098 19.0174C59.646 18.5256 59.4141 17.9052 59.4141 17.1573C59.4141 16.3752 59.6528 15.7334 60.1324 15.2352C60.6121 14.737 61.2569 14.4873 62.0692 14.4873C62.852 14.4873 63.481 14.7327 63.9573 15.2245C64.4098 15.7023 64.6372 16.3195 64.6372 17.0738ZM63.4075 17.1102C63.4075 16.6441 63.3012 16.2445 63.0896 15.9113C62.8407 15.5084 62.4866 15.307 62.0262 15.307C61.5499 15.307 61.1879 15.5084 60.939 15.9113C60.7264 16.2445 60.6211 16.6506 60.6211 17.1306C60.6211 17.5966 60.7275 17.9963 60.939 18.3295C61.1958 18.7324 61.5533 18.9338 62.0149 18.9338C62.4674 18.9338 62.8226 18.7292 63.0783 18.3188C63.2978 17.9791 63.4075 17.5763 63.4075 17.1102Z" fill="white"/>
<path d="M73.1238 14.4873L71.4318 19.7556H70.3306L69.6297 17.4679C69.4519 16.8968 69.3074 16.3291 69.1949 15.7658H69.1732C69.0688 16.3447 68.9242 16.9113 68.7384 17.4679L67.9939 19.7556H66.8801L65.2891 14.4873H66.5245L67.1359 16.9918C67.2839 17.5841 67.4055 18.1485 67.503 18.6827H67.5248C67.6142 18.2424 67.7622 17.6814 67.971 17.003L68.7384 14.4884H69.718L70.4533 16.9493C70.6311 17.5495 70.7757 18.1273 70.8869 18.6838H70.9202C71.0016 18.1418 71.1244 17.564 71.2873 16.9493L71.9434 14.4884H73.1238V14.4873Z" fill="white"/>
<path d="M79.6562 19.7556H78.497V16.8002C78.497 15.8895 78.1475 15.4341 77.4463 15.4341C77.1023 15.4341 76.8247 15.5589 76.609 15.8096C76.3955 16.0602 76.2871 16.3558 76.2871 16.694V19.7545H75.128V16.0701C75.128 15.6169 75.1136 15.1255 75.0859 14.5935H76.1046L76.1588 15.4002H76.1909C76.3258 15.1495 76.5271 14.9427 76.7915 14.7774C77.1056 14.5847 77.4573 14.4873 77.8422 14.4873C78.3289 14.4873 78.7337 14.6427 79.0556 14.9547C79.456 15.3367 79.6562 15.907 79.6562 16.6645V19.7556Z" fill="white"/>
<path d="M82.9155 19.756H81.6094V11.8535H82.9155V19.756Z" fill="white"/>
<path d="M89.4497 17.0738C89.4497 17.8506 89.2155 18.487 88.7472 18.9863C88.2562 19.4995 87.6046 19.7556 86.7935 19.7556C86.0095 19.7556 85.3861 19.5102 84.9223 19.0174C84.4585 18.5256 84.2266 17.9052 84.2266 17.1573C84.2266 16.3752 84.4653 15.7334 84.9449 15.2352C85.4246 14.737 86.0694 14.4873 86.8806 14.4873C87.6645 14.4873 88.2924 14.7327 88.7698 15.2245C89.2223 15.7023 89.4497 16.3195 89.4497 17.0738ZM88.2189 17.1102C88.2189 16.6441 88.1125 16.2445 87.901 15.9113C87.6532 15.5084 87.298 15.307 86.8387 15.307C86.3613 15.307 85.9993 15.5084 85.7515 15.9113C85.5389 16.2445 85.4336 16.6506 85.4336 17.1306C85.4336 17.5966 85.54 17.9963 85.7515 18.3295C86.0083 18.7324 86.3658 18.9338 86.8274 18.9338C87.2799 18.9338 87.634 18.7292 87.8897 18.3188C88.1103 17.9791 88.2189 17.5763 88.2189 17.1102Z" fill="white"/>
<path d="M95.9765 19.641H94.8652L94.7731 19.0592H94.7389C94.3586 19.5231 93.8166 19.7556 93.1127 19.7556C92.5872 19.7556 92.1621 19.6024 91.842 19.2981C91.5515 19.0217 91.4062 18.6777 91.4062 18.2695C91.4062 17.6524 91.6897 17.182 92.2601 16.8563C92.8293 16.5305 93.63 16.3709 94.6609 16.3784V16.2841C94.6609 15.6188 94.2759 15.2866 93.5048 15.2866C92.9556 15.2866 92.4715 15.412 92.0534 15.6605L91.8019 14.9234C92.3191 14.633 92.958 14.4873 93.7115 14.4873C95.1664 14.4873 95.8962 15.1837 95.8962 16.5766V18.4366C95.8962 18.9413 95.9234 19.3431 95.9765 19.641ZM94.6916 17.9052V17.1263C93.3265 17.1048 92.6439 17.4445 92.6439 18.1441C92.6439 18.4077 92.7218 18.6049 92.8812 18.7367C93.0407 18.8684 93.2438 18.9338 93.4859 18.9338C93.7575 18.9338 94.0114 18.8556 94.2429 18.7002C94.4755 18.5438 94.6184 18.3456 94.6716 18.1024C94.6845 18.0477 94.6916 17.9813 94.6916 17.9052Z" fill="white"/>
<path d="M102.504 19.6349H101.425L101.368 18.7783H101.334C100.99 19.4301 100.402 19.756 99.5771 19.756C98.9178 19.756 98.3688 19.5036 97.9336 18.999C97.4983 18.4943 97.2812 17.8392 97.2812 17.0347C97.2812 16.1713 97.5169 15.4721 97.9904 14.938C98.4489 14.4401 99.0107 14.1912 99.6792 14.1912C100.414 14.1912 100.928 14.4322 101.221 14.9154H101.244V11.8535H102.461V18.1979C102.461 18.7172 102.475 19.1959 102.504 19.6349ZM101.244 17.3854V16.4961C101.244 16.3422 101.232 16.2177 101.21 16.1227C101.142 15.8375 100.994 15.5977 100.77 15.4042C100.544 15.2107 100.271 15.1134 99.9567 15.1134C99.5028 15.1134 99.1476 15.2888 98.8865 15.6407C98.6277 15.9926 98.4965 16.4418 98.4965 16.9906C98.4965 17.5178 98.6207 17.9455 98.8702 18.2748C99.1337 18.6256 99.4889 18.801 99.9334 18.801C100.333 18.801 100.652 18.655 100.895 18.3619C101.129 18.0915 101.244 17.7656 101.244 17.3854Z" fill="white"/>
<path d="M112.293 17.0738C112.293 17.8506 112.059 18.487 111.591 18.9863C111.1 19.4995 110.451 19.7556 109.637 19.7556C108.855 19.7556 108.232 19.5102 107.766 19.0174C107.302 18.5256 107.07 17.9052 107.07 17.1573C107.07 16.3752 107.309 15.7334 107.789 15.2352C108.268 14.737 108.913 14.4873 109.727 14.4873C110.508 14.4873 111.138 14.7327 111.614 15.2245C112.066 15.7023 112.293 16.3195 112.293 17.0738ZM111.065 17.1102C111.065 16.6441 110.959 16.2445 110.747 15.9113C110.497 15.5084 110.144 15.307 109.682 15.307C109.207 15.307 108.845 15.5084 108.595 15.9113C108.383 16.2445 108.277 16.6506 108.277 17.1306C108.277 17.5966 108.384 17.9963 108.595 18.3295C108.852 18.7324 109.21 18.9338 109.671 18.9338C110.124 18.9338 110.48 18.7292 110.736 18.3188C110.954 17.9791 111.065 17.5763 111.065 17.1102Z" fill="white"/>
<path d="M118.828 19.7556H117.67V16.8002C117.67 15.8895 117.32 15.4341 116.618 15.4341C116.274 15.4341 115.996 15.5589 115.781 15.8096C115.567 16.0602 115.459 16.3558 115.459 16.694V19.7545H114.299V16.0701C114.299 15.6169 114.285 15.1255 114.258 14.5935H115.276L115.33 15.4002H115.362C115.498 15.1495 115.699 14.9427 115.963 14.7774C116.278 14.5847 116.629 14.4873 117.015 14.4873C117.5 14.4873 117.905 14.6427 118.227 14.9547C118.629 15.3367 118.828 15.907 118.828 16.6645V19.7556Z" fill="white"/>
<path d="M126.663 15.3264H125.351V17.8461C125.351 18.4865 125.584 18.8067 126.045 18.8067C126.259 18.8067 126.437 18.7891 126.576 18.7528L126.607 19.6275C126.372 19.7134 126.063 19.7563 125.682 19.7563C125.211 19.7563 124.845 19.6176 124.58 19.3403C124.314 19.0631 124.182 18.5965 124.182 17.9418V15.3264H123.398V14.4627H124.182V13.512L125.35 13.1709V14.4616H126.662V15.3264H126.663Z" fill="white"/>
<path d="M133.187 19.756H132.016V16.6763C132.016 15.7053 131.664 15.2193 130.957 15.2193C130.414 15.2193 130.044 15.5008 129.841 16.0639C129.806 16.1822 129.786 16.327 129.786 16.4971V19.7548H128.617V11.8535H129.786V15.1181H129.808C130.177 14.5241 130.705 14.2276 131.389 14.2276C131.874 14.2276 132.274 14.3908 132.592 14.7183C132.989 15.1262 133.187 15.7329 133.187 16.535V19.756Z" fill="white"/>
<path d="M139.719 16.8912C139.719 17.093 139.703 17.2626 139.676 17.4011H136.249C136.264 17.9014 136.428 18.2826 136.745 18.5467C137.035 18.7829 137.409 18.901 137.867 18.901C138.374 18.901 138.836 18.8215 139.253 18.6616L139.432 19.4432C138.944 19.6515 138.371 19.7556 137.707 19.7556C136.911 19.7556 136.284 19.5248 135.83 19.0631C135.374 18.6014 135.148 17.982 135.148 17.2047C135.148 16.4413 135.359 15.8057 135.783 15.299C136.226 14.7579 136.825 14.4873 137.58 14.4873C138.32 14.4873 138.881 14.7579 139.261 15.299C139.567 15.7284 139.719 16.2599 139.719 16.8912ZM138.628 16.6002C138.637 16.2663 138.562 15.9786 138.407 15.7359C138.208 15.4235 137.906 15.2668 137.497 15.2668C137.124 15.2668 136.82 15.4192 136.588 15.7252C136.398 15.9689 136.286 16.2599 136.249 16.6002H138.628Z" fill="white"/>
<path d="M63.3313 40.1708H60.6918L59.246 35.7218H54.2204L52.8432 40.1708H50.2734L55.2525 25.0244H58.3278L63.3313 40.1708ZM58.8101 33.8552L57.5026 29.9002C57.3643 29.4962 57.1051 28.5447 56.7227 27.0469H56.6763C56.524 27.6911 56.2788 28.6426 55.9417 29.9002L54.6574 33.8552H58.8101Z" fill="white"/>
<path d="M75.7353 34.6007C75.7353 36.483 75.2368 37.9709 74.2398 39.0631C73.3467 40.0354 72.2378 40.521 70.9141 40.521C69.4852 40.521 68.4588 39.9974 67.8337 38.9501H67.7884V44.7805H65.3784V32.8464C65.3784 31.663 65.3478 30.4485 65.2891 29.2028H67.4086L67.5431 30.9571H67.5884C68.3921 29.6353 69.6118 28.9756 71.2487 28.9756C72.5283 28.9756 73.5966 29.4911 74.4512 30.5234C75.308 31.5569 75.7353 32.9156 75.7353 34.6007ZM73.2801 34.6906C73.2801 33.6134 73.0427 32.7253 72.5656 32.0263C72.0445 31.2974 71.3448 30.9329 70.4675 30.9329C69.8729 30.9329 69.3326 31.1359 68.8499 31.5361C68.3661 31.9398 68.0496 32.4669 67.9015 33.1197C67.8269 33.4242 67.7896 33.6733 67.7896 33.8694V35.7148C67.7896 36.5199 68.0315 37.1992 68.5153 37.754C68.9991 38.3088 69.6276 38.5856 70.4009 38.5856C71.3086 38.5856 72.0151 38.2281 72.5204 37.5153C73.0268 36.8013 73.2801 35.8602 73.2801 34.6906Z" fill="white"/>
<path d="M88.1416 34.6007C88.1416 36.483 87.643 37.9709 86.6447 39.0631C85.7527 40.0354 84.6437 40.521 83.3198 40.521C81.8908 40.521 80.8642 39.9974 80.2402 38.9501H80.195V44.7805H77.7846V32.8464C77.7846 31.663 77.7541 30.4485 77.6953 29.2028H79.8151L79.9496 30.9571H79.9948C80.7975 29.6353 82.0174 28.9756 83.6556 28.9756C84.9342 28.9756 86.0026 29.4911 86.8596 30.5234C87.7131 31.5569 88.1416 32.9156 88.1416 34.6007ZM85.686 34.6906C85.686 33.6134 85.4475 32.7253 84.9704 32.0263C84.4492 31.2974 83.7517 30.9329 82.8732 30.9329C82.2774 30.9329 81.7382 31.1359 81.2543 31.5361C80.7704 31.9398 80.455 32.4669 80.3069 33.1197C80.2334 33.4242 80.195 33.6733 80.195 33.8694V35.7148C80.195 36.5199 80.4369 37.1992 80.9185 37.754C81.4024 38.3076 82.031 38.5856 82.8065 38.5856C83.7144 38.5856 84.421 38.2281 84.9263 37.5153C85.4328 36.8013 85.686 35.8602 85.686 34.6906Z" fill="white"/>
<path d="M102.508 36.2966C102.508 37.6026 102.073 38.6651 101.199 39.4853C100.239 40.3817 98.9029 40.8293 97.1857 40.8293C95.6003 40.8293 94.3293 40.5109 93.3672 39.8729L93.9141 37.8229C94.9504 38.4759 96.0874 38.8035 97.3263 38.8035C98.2153 38.8035 98.9073 38.5935 99.4044 38.1759C99.8993 37.7583 100.146 37.1976 100.146 36.4985C100.146 35.8756 99.9425 35.3507 99.5339 34.925C99.1276 34.4993 98.4489 34.1036 97.5012 33.7379C94.9216 32.7353 93.6329 31.2668 93.6329 29.3356C93.6329 28.0735 94.0846 27.0387 94.9891 26.2334C95.8903 25.427 97.0927 25.0244 98.5962 25.0244C99.9369 25.0244 101.051 25.2678 101.94 25.7535L101.35 27.7585C100.519 27.2879 99.5804 27.0525 98.5298 27.0525C97.6994 27.0525 97.0506 27.2659 96.5856 27.6905C96.1926 28.07 95.9955 28.5326 95.9955 29.0806C95.9955 29.6874 96.2203 30.1893 96.672 30.5838C97.065 30.9484 97.7791 31.3429 98.8154 31.7686C100.083 32.3004 101.014 32.9222 101.613 33.6352C102.21 34.3458 102.508 35.2353 102.508 36.2966Z" fill="white"/>
<path d="M110.341 31.5303H107.716V36.8189C107.716 38.164 108.179 38.836 109.106 38.836C109.531 38.836 109.884 38.7985 110.164 38.7236L110.23 40.5614C109.76 40.7396 109.143 40.8293 108.377 40.8293C107.437 40.8293 106.702 40.5375 106.171 39.9552C105.642 39.3718 105.377 38.3933 105.377 37.0186V31.528H103.812V29.7118H105.377V27.7174L107.716 27V29.7118H110.341V31.5303Z" fill="white"/>
<path d="M123.396 34.473C123.396 36.1228 122.898 37.4773 121.903 38.5366C120.861 39.6271 119.477 40.1707 117.751 40.1707C116.089 40.1707 114.765 39.6484 113.778 38.6037C112.79 37.559 112.297 36.2403 112.297 34.6509C112.297 32.9877 112.805 31.6253 113.824 30.5661C114.841 29.5058 116.213 28.9756 117.938 28.9756C119.601 28.9756 120.939 29.4979 121.948 30.5437C122.914 31.5582 123.396 32.868 123.396 34.473ZM120.784 34.5502C120.784 33.5603 120.561 32.7114 120.108 32.0034C119.581 31.1466 118.826 30.7193 117.848 30.7193C116.836 30.7193 116.067 31.1477 115.54 32.0034C115.087 32.7125 114.864 33.5749 114.864 34.595C114.864 35.5848 115.087 36.4338 115.54 37.1407C116.084 37.9974 116.844 38.4247 117.826 38.4247C118.787 38.4247 119.542 37.9885 120.086 37.1183C120.55 36.3969 120.784 35.539 120.784 34.5502Z" fill="white"/>
<path d="M130.579 31.3442C130.338 31.2997 130.08 31.2768 129.81 31.2768C128.952 31.2768 128.288 31.6003 127.821 32.2485C127.415 32.8201 127.211 33.5426 127.211 34.4148V40.1707H124.772L124.795 32.6555C124.795 31.3911 124.764 30.2399 124.703 29.2019H126.829L126.918 31.3008H126.985C127.243 30.5795 127.649 29.9987 128.205 29.5632C128.749 29.1711 129.336 28.9756 129.969 28.9756C130.195 28.9756 130.398 28.9916 130.579 29.0202V31.3442Z" fill="white"/>
<path d="M141.676 34.0851C141.676 34.5132 141.647 34.8741 141.587 35.1688H134.242C134.27 36.2313 134.625 37.0438 135.307 37.6042C135.926 38.1052 136.727 38.3562 137.71 38.3562C138.797 38.3562 139.789 38.187 140.682 37.8474L141.065 39.5061C140.023 39.9499 138.791 40.1707 137.371 40.1707C135.662 40.1707 134.321 39.6798 133.345 38.6992C132.371 37.7185 131.883 36.4016 131.883 34.7497C131.883 33.1279 132.336 31.7774 133.245 30.7004C134.196 29.5505 135.481 28.9756 137.098 28.9756C138.686 28.9756 139.888 29.5505 140.705 30.7004C141.351 31.6138 141.676 32.7435 141.676 34.0851ZM139.342 33.4653C139.358 32.757 139.198 32.1451 138.866 31.6284C138.442 30.9638 137.791 30.632 136.915 30.632C136.115 30.632 135.463 30.9559 134.966 31.606C134.559 32.1226 134.316 32.7424 134.242 33.4642H139.342V33.4653Z" fill="white"/>
</g>
<defs>
<clipPath id="clip0_1_1509">
<rect width="158" height="54" rx="8" fill="white"/>
</clipPath>
</defs>
</svg>
