<svg width="158" height="54" viewBox="0 0 158 54" fill="none" xmlns="http://www.w3.org/2000/svg">
<g clip-path="url(#clip0_1_1537)">
<path d="M152.148 54H5.85185C2.6348 54 0 50.9608 0 47.25V6.75C0 3.03918 2.6348 -3.8147e-06 5.85185 -3.8147e-06H152.148C155.365 -3.8147e-06 158 3.03918 158 6.75V47.25C158 50.9608 155.365 54 152.148 54Z" fill="url(#paint0_linear_1_1537)"/>
<path d="M56.1461 16.7196C56.1461 17.5966 55.877 18.299 55.3468 18.8228C54.7373 19.4438 53.9433 19.7563 52.9705 19.7563C52.0406 19.7563 51.2467 19.4385 50.5954 18.8123C49.9428 18.1769 49.6172 17.397 49.6172 16.4636C49.6172 15.5301 49.9428 14.7503 50.5954 14.1201C51.2467 13.4886 52.0406 13.1709 52.9705 13.1709C53.4334 13.1709 53.8747 13.2641 54.2959 13.4374C54.7157 13.612 55.0575 13.8483 55.3051 14.1398L54.7426 14.6938C54.3107 14.1963 53.7227 13.9507 52.9705 13.9507C52.2923 13.9507 51.7042 14.1818 51.205 14.6479C50.7112 15.1153 50.4636 15.7205 50.4636 16.4636C50.4636 17.2067 50.7112 17.8172 51.205 18.2845C51.7042 18.7454 52.2923 18.9817 52.9705 18.9817C53.6904 18.9817 54.2959 18.7454 54.7736 18.2793C55.0885 17.9708 55.2674 17.5454 55.3145 17.0019H52.9705V16.243H56.0977C56.1353 16.4071 56.1461 16.566 56.1461 16.7196Z" fill="white" stroke="white" stroke-width="0.16" stroke-miterlimit="10"/>
<path d="M62.0189 13.9797H58.9659V16.0668H61.7182V16.8604H58.9659V18.9475H62.0189V19.7563H58.1016V13.1709H62.0189V13.9797Z" fill="white" stroke="white" stroke-width="0.16" stroke-miterlimit="10"/>
<path d="M65.7722 19.7563H64.7931V13.9797H62.6719V13.1709H67.895V13.9797H65.7722V19.7563Z" fill="white" stroke="white" stroke-width="0.16" stroke-miterlimit="10"/>
<path d="M71.1641 19.7563V13.1709H71.8171V19.7563H71.1641Z" fill="white" stroke="white" stroke-width="0.16" stroke-miterlimit="10"/>
<path d="M75.5653 19.7563H74.5953V13.9797H72.4688V13.1709H77.6919V13.9797H75.5653V19.7563Z" fill="white" stroke="white" stroke-width="0.16" stroke-miterlimit="10"/>
<path d="M86.4574 18.8018C85.7689 19.4386 84.916 19.7563 83.8985 19.7563C82.8752 19.7563 82.0223 19.4386 81.3338 18.8018C80.6467 18.1664 80.3047 17.3865 80.3047 16.4636C80.3047 15.5406 80.6467 14.7608 81.3338 14.1254C82.0223 13.4886 82.8752 13.1709 83.8985 13.1709C84.9101 13.1709 85.7631 13.4886 86.4516 14.1306C87.1444 14.7713 87.4865 15.5459 87.4865 16.4636C87.4865 17.3865 87.1444 18.1664 86.4574 18.8018ZM81.999 18.274C82.5172 18.7454 83.1474 18.9817 83.8985 18.9817C84.6438 18.9817 85.2798 18.7454 85.7922 18.274C86.3089 17.8027 86.5709 17.1975 86.5709 16.4636C86.5709 15.7297 86.3089 15.1245 85.7922 14.6531C85.2798 14.1818 84.6438 13.9455 83.8985 13.9455C83.1474 13.9455 82.5172 14.1818 81.999 14.6531C81.4823 15.1245 81.2202 15.7297 81.2202 16.4636C81.2202 17.1975 81.4823 17.8027 81.999 18.274Z" fill="white" stroke="white" stroke-width="0.16" stroke-miterlimit="10"/>
<path d="M88.7891 19.7563V13.1709H89.8481L93.141 18.2925H93.1791L93.141 17.0265V13.1709H94.0122V19.7563H93.1028L89.6546 14.382H89.6165L89.6546 15.6535V19.7563H88.7891Z" fill="white" stroke="white" stroke-width="0.16" stroke-miterlimit="10"/>
<path d="M78.807 31.4365C76.2205 31.4365 74.1074 33.3718 74.1074 36.0419C74.1074 38.6903 76.2205 40.6459 78.807 40.6459C81.3991 40.6459 83.5121 38.6903 83.5121 36.0419C83.5121 33.3718 81.3991 31.4365 78.807 31.4365ZM78.807 38.8324C77.3878 38.8324 76.1668 37.6807 76.1668 36.0419C76.1668 34.3813 77.3878 33.25 78.807 33.25C80.2262 33.25 81.4528 34.3813 81.4528 36.0419C81.4528 37.6807 80.2262 38.8324 78.807 38.8324ZM68.553 31.4365C65.961 31.4365 63.8535 33.3718 63.8535 36.0419C63.8535 38.6903 65.961 40.6459 68.553 40.6459C71.1437 40.6459 73.2526 38.6903 73.2526 36.0419C73.2526 33.3718 71.1437 31.4365 68.553 31.4365ZM68.553 38.8324C67.1324 38.8324 65.9073 37.6807 65.9073 36.0419C65.9073 34.3813 67.1324 33.25 68.553 33.25C69.9723 33.25 71.1933 34.3813 71.1933 36.0419C71.1933 37.6807 69.9723 38.8324 68.553 38.8324ZM56.3512 32.848V34.8049H61.1045C60.9654 35.8984 60.5938 36.7023 60.0239 37.2626C59.3301 37.9392 58.2495 38.6903 56.3512 38.6903C53.426 38.6903 51.1354 36.3694 51.1354 33.4936C51.1354 30.6178 53.426 28.2968 56.3512 28.2968C57.9329 28.2968 59.0837 28.9044 59.933 29.6921L61.3357 28.313C60.1478 27.1979 58.5675 26.3412 56.3512 26.3412C52.3399 26.3412 48.9688 29.55 48.9688 33.4936C48.9688 37.4371 52.3399 40.6459 56.3512 40.6459C58.5193 40.6459 60.1478 39.9476 61.428 38.6375C62.7398 37.3478 63.1487 35.5344 63.1487 34.0701C63.1487 33.6154 63.1101 33.1972 63.0413 32.848H56.3512ZM106.246 34.3651C105.859 33.3352 104.666 31.4365 102.235 31.4365C99.8257 31.4365 97.82 33.3027 97.82 36.0419C97.82 38.6213 99.805 40.6459 102.466 40.6459C104.617 40.6459 105.859 39.3562 106.37 38.6051L104.773 37.5589C104.24 38.3249 103.515 38.8324 102.466 38.8324C101.424 38.8324 100.676 38.3628 100.197 37.4371L106.462 34.8888L106.246 34.3651ZM99.8587 35.8984C99.805 34.1229 101.261 33.2134 102.305 33.2134C103.123 33.2134 103.816 33.6154 104.048 34.1905L99.8587 35.8984ZM94.7668 40.3657H96.8261V26.8325H94.7668V40.3657ZM91.3943 32.4623H91.3254C90.8629 31.9237 89.9805 31.4365 88.8628 31.4365C86.5171 31.4365 84.3724 33.4611 84.3724 36.0568C84.3724 38.6375 86.5171 40.6459 88.8628 40.6459C89.9805 40.6459 90.8629 40.1546 91.3254 39.5998H91.3943V40.2602C91.3943 42.0208 90.4375 42.9668 88.8944 42.9668C87.6362 42.9668 86.8557 42.0736 86.5336 41.3225L84.7427 42.0574C85.2589 43.2781 86.6259 44.7803 88.8944 44.7803C91.3089 44.7803 93.3462 43.3836 93.3462 39.9855V31.7166H91.3943V32.4623ZM89.039 38.8324C87.6197 38.8324 86.4318 37.6645 86.4318 36.0568C86.4318 34.4341 87.6197 33.25 89.039 33.25C90.4375 33.25 91.5402 34.4341 91.5402 36.0568C91.5402 37.6645 90.4375 38.8324 89.039 38.8324ZM115.887 26.8325H110.962V40.3657H113.016V35.238H115.887C118.168 35.238 120.405 33.6154 120.405 31.0346C120.405 28.4551 118.163 26.8325 115.887 26.8325ZM115.941 33.3555H113.016V28.715H115.941C117.475 28.715 118.35 29.9668 118.35 31.0346C118.35 32.082 117.475 33.3555 115.941 33.3555ZM128.637 31.4108C127.153 31.4108 125.61 32.055 124.975 33.4827L126.798 34.2338C127.19 33.4827 127.912 33.2391 128.674 33.2391C129.74 33.2391 130.82 33.8684 130.837 34.9795V35.1216C130.465 34.9105 129.669 34.5979 128.691 34.5979C126.728 34.5979 124.728 35.6602 124.728 37.6429C124.728 39.4563 126.335 40.6242 128.143 40.6242C129.525 40.6242 130.288 40.0112 130.767 39.298H130.837V40.3441H132.82V35.1527C132.82 32.7533 130.998 31.4108 128.637 31.4108ZM128.389 38.827C127.717 38.827 126.781 38.4995 126.781 37.6807C126.781 36.6333 127.949 36.2313 128.959 36.2313C129.864 36.2313 130.288 36.4276 130.837 36.6861C130.676 37.9392 129.579 38.827 128.389 38.827ZM140.047 31.7072L137.687 37.5738H137.616L135.176 31.7072H132.961L136.628 39.9056L134.536 44.4677H136.682L142.332 31.7072H140.047ZM121.534 40.3657H123.593V26.8325H121.534V40.3657Z" fill="white"/>
<path fill-rule="evenodd" clip-rule="evenodd" d="M16.8238 13.594C16.5047 13.9292 16.3203 14.4413 16.3203 15.1116V38.8871C16.3203 39.5574 16.5047 40.0695 16.8348 40.3913L16.9201 40.4637L30.5886 27.1428V26.8452L16.9091 13.5216L16.8238 13.594Z" fill="url(#paint1_linear_1_1537)"/>
<path fill-rule="evenodd" clip-rule="evenodd" d="M35.1371 31.5974L30.5781 27.1544V26.8434L35.1371 22.4004L35.2361 22.4594L40.6287 25.4464C42.1722 26.2937 42.1722 27.6933 40.6287 28.5514L35.2361 31.5384L35.1371 31.5974Z" fill="url(#paint2_linear_1_1537)"/>
<path fill-rule="evenodd" clip-rule="evenodd" d="M35.2321 31.5385L30.5742 26.999L16.8203 40.403C17.3238 40.9286 18.1685 40.9876 19.1122 40.4754L35.2321 31.5385Z" fill="url(#paint3_linear_1_1537)"/>
<path fill-rule="evenodd" clip-rule="evenodd" d="M35.2321 22.4601L19.1122 13.5366C18.1685 13.011 17.3211 13.0834 16.8203 13.609L30.5742 26.9996L35.2321 22.4601Z" fill="url(#paint4_linear_1_1537)"/>
<path opacity="0.2" fill-rule="evenodd" clip-rule="evenodd" d="M35.13 31.4414L19.12 40.3059C18.2258 40.8073 17.4279 40.7724 16.9134 40.3166L16.8281 40.3997L16.9134 40.4721C17.4279 40.9253 18.2258 40.9628 19.12 40.4614L35.24 31.5379L35.13 31.4414Z" fill="black"/>
<path opacity="0.12" fill-rule="evenodd" clip-rule="evenodd" d="M40.6226 28.396L35.1172 31.442L35.2162 31.5385L40.6088 28.5515C41.3819 28.1225 41.7616 27.5594 41.7616 26.999C41.7148 27.5138 41.3214 28.0018 40.6226 28.396Z" fill="black"/>
<path opacity="0.25" fill-rule="evenodd" clip-rule="evenodd" d="M19.1157 13.6909L40.6282 25.6014C41.327 25.9849 41.7205 26.4863 41.781 26.9984C41.781 26.438 41.4013 25.8749 40.6282 25.4459L19.1157 13.5354C17.5722 12.6747 16.3203 13.3933 16.3203 15.112V15.2675C16.3203 13.5461 17.5722 12.8409 19.1157 13.6909Z" fill="white"/>
</g>
<defs>
<linearGradient id="paint0_linear_1_1537" x1="16.7373" y1="48.0441" x2="153.601" y2="21.7032" gradientUnits="userSpaceOnUse">
<stop stop-color="#24095F"/>
<stop offset="1" stop-color="#210757"/>
</linearGradient>
<linearGradient id="paint1_linear_1_1537" x1="29.3626" y1="14.8551" x2="7.54443" y2="20.8203" gradientUnits="userSpaceOnUse">
<stop stop-color="#00A0FF"/>
<stop offset="0.00657" stop-color="#00A1FF"/>
<stop offset="0.2601" stop-color="#00BEFF"/>
<stop offset="0.5122" stop-color="#00D2FF"/>
<stop offset="0.7604" stop-color="#00DFFF"/>
<stop offset="1" stop-color="#00E3FF"/>
</linearGradient>
<linearGradient id="paint2_linear_1_1537" x1="42.6416" y1="26.9989" x2="15.9456" y2="26.9989" gradientUnits="userSpaceOnUse">
<stop stop-color="#FFE000"/>
<stop offset="0.4087" stop-color="#FFBD00"/>
<stop offset="0.7754" stop-color="#FFA500"/>
<stop offset="1" stop-color="#FF9C00"/>
</linearGradient>
<linearGradient id="paint3_linear_1_1537" x1="32.6993" y1="29.4692" x2="15.7835" y2="58.6829" gradientUnits="userSpaceOnUse">
<stop stop-color="#FF3A44"/>
<stop offset="1" stop-color="#C31162"/>
</linearGradient>
<linearGradient id="paint4_linear_1_1537" x1="13.3569" y1="5.68749" x2="20.9036" y2="18.7345" gradientUnits="userSpaceOnUse">
<stop stop-color="#32A071"/>
<stop offset="0.0685" stop-color="#2DA771"/>
<stop offset="0.4762" stop-color="#15CF74"/>
<stop offset="0.8009" stop-color="#06E775"/>
<stop offset="1" stop-color="#00F076"/>
</linearGradient>
<clipPath id="clip0_1_1537">
<rect width="158" height="54" rx="8" transform="matrix(1 0 0 -1 0 54)" fill="white"/>
</clipPath>
</defs>
</svg>
